HIERARCHY
ROOT Hips
{
	OFFSET 0.000000 0.000000 0.000000
	CHANNELS 6 Xposition Yposition Zposition Zrotation Yrotation Xrotation 
	JOINT LHipJoint
	{
		OFFSET 0.000000 0.000000 0.000000
		CHANNELS 3 Zrotation Yrotation Xrotation
		JOINT LeftUpLeg
		{
			OFFSET 1.363060 -1.794630 0.839290
			CHANNELS 3 Zrotation Yrotation Xrotation
			JOINT LeftLeg
			{
				OFFSET 2.448110 -6.726130 0.000000
				CHANNELS 3 Zrotation Yrotation Xrotation
				JOINT LeftFoot
				{
					OFFSET 2.562200 -7.039590 0.000000
					CHANNELS 3 Zrotation Yrotation Xrotation
					JOINT LeftToeBase
					{
						OFFSET 0.157640 -0.433110 2.322550
						CHANNELS 3 Zrotation Yrotation Xrotation
						End Site
						{
							OFFSET 0.000000 0.000000 0.000000
						}
					}
				}
			}
		}
	}
	JOINT RHipJoint
	{
		OFFSET 0.000000 0.000000 0.000000
		CHANNELS 3 Zrotation Yrotation Xrotation
		JOINT RightUpLeg
		{
			OFFSET -1.305520 -1.794630 0.839290
			CHANNELS 3 Zrotation Yrotation Xrotation
			JOINT RightLeg
			{
				OFFSET -2.542530 -6.985550 0.000000
				CHANNELS 3 Zrotation Yrotation Xrotation
				JOINT RightFoot
				{
					OFFSET -2.568260 -7.056230 0.000000
					CHANNELS 3 Zrotation Yrotation Xrotation
					JOINT RightToeBase
					{
						OFFSET -0.164730 -0.452590 2.363150
						CHANNELS 3 Zrotation Yrotation Xrotation
						End Site
						{
							OFFSET 0.000000 0.000000 0.000000
						}
					}
				}
			}
		}
	}
	JOINT LowerBack
	{
		OFFSET 0.000000 0.000000 0.000000
		CHANNELS 3 Zrotation Yrotation Xrotation
		JOINT Spine
		{
			OFFSET 0.028270 2.035590 -0.193380
			CHANNELS 3 Zrotation Yrotation Xrotation
			JOINT Spine1
			{
				OFFSET 0.056720 2.048850 -0.042750
				CHANNELS 3 Zrotation Yrotation Xrotation
				JOINT Neck
				{
					OFFSET 0.000000 0.000000 0.000000
					CHANNELS 3 Zrotation Yrotation Xrotation
					JOINT Neck1
					{
						OFFSET -0.054170 1.746240 0.172020
						CHANNELS 3 Zrotation Yrotation Xrotation
						JOINT Head
						{
							OFFSET 0.104070 1.761360 -0.123970
							CHANNELS 3 Zrotation Yrotation Xrotation
							End Site
							{
								OFFSET 0.000000 0.000000 0.000000
							}
						}
					}
				}
				JOINT LeftShoulder
				{
					OFFSET 0.000000 0.000000 0.000000
					CHANNELS 3 Zrotation Yrotation Xrotation
					JOINT LeftArm
					{
						OFFSET 3.362410 1.200890 -0.311210
						CHANNELS 3 Zrotation Yrotation Xrotation
						JOINT LeftForeArm
						{
							OFFSET 4.983000 -0.000000 -0.000000
							CHANNELS 3 Zrotation Yrotation Xrotation
							JOINT LeftHand
							{
								OFFSET 3.483560 -0.000000 -0.000000
								CHANNELS 3 Zrotation Yrotation Xrotation
								JOINT LeftFingerBase
								{
									OFFSET 0.000000 0.000000 0.000000
									CHANNELS 3 Zrotation Yrotation Xrotation
									JOINT LeftHandIndex1
									{
										OFFSET 0.715260 -0.000000 -0.000000
										CHANNELS 3 Zrotation Yrotation Xrotation
										End Site
										{
											OFFSET 0.000000 0.000000 0.000000
										}
									}
								}
								JOINT LThumb
								{
									OFFSET 0.000000 0.000000 0.000000
									CHANNELS 3 Zrotation Yrotation Xrotation
									End Site
									{
										OFFSET 0.000000 0.000000 0.000000
									}
								}
							}
						}
					}
				}
				JOINT RightShoulder
				{
					OFFSET 0.000000 0.000000 0.000000
					CHANNELS 3 Zrotation Yrotation Xrotation
					JOINT RightArm
					{
						OFFSET -3.136600 1.374050 -0.404650
						CHANNELS 3 Zrotation Yrotation Xrotation
						JOINT RightForeArm
						{
							OFFSET -5.241900 -0.000000 -0.000000
							CHANNELS 3 Zrotation Yrotation Xrotation
							JOINT RightHand
							{
								OFFSET -3.444170 -0.000000 -0.000000
								CHANNELS 3 Zrotation Yrotation Xrotation
								JOINT RightFingerBase
								{
									OFFSET 0.000000 0.000000 0.000000
									CHANNELS 3 Zrotation Yrotation Xrotation
									JOINT RightHandIndex1
									{
										OFFSET -0.622530 -0.000000 -0.000000
										CHANNELS 3 Zrotation Yrotation Xrotation
										End Site
										{
											OFFSET 0.000000 0.000000 0.000000
										}
									}
								}
								JOINT RThumb
								{
									OFFSET 0.000000 0.000000 0.000000
									CHANNELS 3 Zrotation Yrotation Xrotation
									End Site
									{
										OFFSET 0.000000 0.000000 0.000000
									}
								}
							}
						}
					}
				}
			}
		}
	}
}
MOTION
Frames: 5
Frame Time: 0.008333
5.367839 18.127129 -1.622136 -11.525633 74.836435 -10.855501 -2.942889 5.286360 5.508305 -6.748194 -4.372152 -7.579466 0.969697 7.821059 24.986930 -4.286121 16.407443 -9.885077 0.658000 -5.188200 -14.446100 -1.303636 -5.921444 3.161474 17.423260 18.527991 -1.152750 -1.539580 -6.451317 23.360105 3.479619 -12.734159 -5.580354 -0.349600 3.798900 -10.511500 3.069172 1.105547 -2.078532 -0.021955 0.877387 4.397849 -2.528418 0.906045 -6.096963 -14.009290 -11.108224 -17.903678 21.133644 -16.122170 14.731778 5.103100 -6.556000 7.580700 -5.595031 -4.288538 0.136252 -18.202356 -13.441566 -23.840706 22.793167 -33.157971 -8.961185 -1.491035 -1.234440 6.559749 34.770259 18.792998 14.112700 -7.125000 0.000000 0.000000 8.228400 54.224300 1.875000 6.160524 4.616444 0.643126 -0.490636 19.066802 -58.621852 -9.523085 15.503300 -2.146402 3.742441 0.639346 13.171261 -35.935758 -11.061739 9.971600 7.125000 0.000000 0.000000 -11.482800 -45.479100 0.137600 
5.363950 18.132769 -1.584507 -10.977531 74.658062 -10.247829 -2.939447 5.286026 5.523911 -6.732730 -4.145005 -7.658183 0.962420 7.795052 24.923824 -4.254749 16.295225 -9.811741 0.629300 -5.076200 -14.126000 -1.299725 -5.929903 3.178042 17.395815 18.466099 -1.321636 -1.541538 -6.455709 23.372144 3.454473 -12.649807 -5.494466 -0.368800 3.900600 -10.797300 2.675990 0.937189 -2.000970 0.321707 0.651311 4.519589 -2.287236 0.814254 -6.045662 -15.091498 -11.606257 -17.148356 21.847183 -16.666325 13.889161 5.365500 -6.885300 7.487700 -5.703430 -4.153734 0.131610 -19.274111 -11.602775 -23.440185 22.899097 -33.274873 -9.030130 -1.466067 -1.364937 4.708990 34.411608 19.902209 14.689300 -7.125000 0.000000 0.000000 7.760400 55.519100 2.012400 6.314537 4.480957 0.567999 0.619438 18.966316 -60.124859 -9.491426 15.309853 -2.123361 3.823899 0.798306 11.473258 -36.546032 -11.937208 10.935800 7.125000 0.000000 0.000000 -12.253500 -46.718800 0.527500 
5.360061 18.138992 -1.549990 -10.566441 74.470690 -9.722495 -2.944587 5.281795 5.541569 -6.695991 -4.261179 -7.654518 0.939317 7.764111 24.848917 -4.213032 16.197784 -10.082801 0.526300 -4.649200 -12.910800 -1.298406 -5.935165 3.202036 17.341318 18.203914 -1.663494 -1.545553 -6.460848 23.389582 3.391358 -12.434950 -5.221337 -0.402100 4.071100 -11.276900 2.564218 0.866403 -2.035554 0.262451 0.543442 4.691044 -2.162816 0.766817 -5.907609 -15.898802 -11.960948 -15.965219 22.749536 -17.042742 12.458530 5.686800 -7.169400 7.189800 -5.774439 -4.025228 0.100919 -20.358495 -10.199572 -23.305352 23.107885 -33.477127 -9.151827 -1.426548 -1.465802 3.627550 33.902217 21.114106 15.200400 -7.125000 0.000000 0.000000 7.035000 56.863400 2.052300 6.510369 4.330003 0.490925 2.024242 18.676312 -61.089836 -9.587646 15.277307 -2.145295 3.874361 0.941874 10.221926 -37.141333 -12.935747 12.011600 7.125000 0.000000 0.000000 -13.015100 -48.117100 1.016900 
5.352185 18.139283 -1.519458 -9.954153 74.337825 -9.049026 -2.962799 5.278062 5.562173 -6.734954 -4.373290 -7.628383 0.918504 7.729091 24.772136 -4.208763 16.212286 -10.314737 0.473600 -4.413500 -12.243000 -1.302177 -5.941245 3.234175 17.179900 17.932376 -1.980177 -1.542039 -6.464630 23.398395 3.246288 -11.974933 -4.993393 -0.357200 3.839400 -10.625200 2.472312 0.830569 -1.997540 0.020527 0.478674 4.932477 -2.002249 0.739291 -5.853671 -16.518403 -12.344457 -14.936593 23.466017 -17.491964 11.279268 5.929700 -7.480100 6.964900 -5.813991 -3.879874 0.063716 -21.621079 -8.938792 -23.048001 23.516453 -33.877838 -9.381737 -1.366777 -1.474297 2.779054 33.758419 21.018433 15.041600 -7.125000 0.000000 0.000000 6.836900 56.702900 1.967600 6.709635 4.153627 0.405015 3.816208 18.429389 -61.573450 -9.970729 15.633438 -2.262922 3.854137 1.028356 9.108269 -37.829343 -13.508137 12.751700 7.125000 0.000000 0.000000 -13.784000 -48.947100 1.365500 
5.342753 18.135199 -1.490289 -9.744607 74.156120 -8.833995 -2.962896 5.296038 5.609005 -6.674029 -4.338955 -7.631707 0.909531 7.700949 24.696600 -4.252254 16.333907 -10.313102 0.470600 -4.399700 -12.204000 -1.302775 -5.955079 3.278545 17.180989 17.890126 -2.123301 -1.539786 -6.458622 23.411452 3.116869 -11.569349 -4.937625 -0.301700 3.531900 -9.763200 2.311970 0.777319 -2.073356 0.045390 0.391961 5.440136 -1.757075 0.706699 -5.810082 -16.234557 -12.695689 -14.468134 23.019475 -17.909367 10.663415 5.756800 -7.762400 6.785300 -5.876310 -3.724466 0.023038 -23.166344 -7.653966 -22.720426 24.135024 -34.491063 -9.735395 -1.291833 -1.474265 1.957150 33.639654 20.975215 14.917300 -7.125000 0.000000 0.000000 6.645200 56.599500 1.895400 6.813516 3.989092 0.325499 5.670861 18.325136 -61.479924 -10.512361 16.222650 -2.437043 3.790522 1.109120 7.659742 -38.478736 -13.768279 13.210100 7.125000 0.000000 0.000000 -14.456400 -49.357600 1.583100 
